<?xml version="1.0" standalone="no"?>
<!DOCTYPE svg PUBLIC "-//W3C//DTD SVG 20010904//EN"
 "http://www.w3.org/TR/2001/REC-SVG-20010904/DTD/svg10.dtd">
<svg version="1.0" xmlns="http://www.w3.org/2000/svg"
 width="3088.000000pt" height="736.000000pt" viewBox="0 0 3088.000000 736.000000"
 preserveAspectRatio="xMidYMid meet">

<g transform="translate(0.000000,736.000000) scale(0.100000,-0.100000)"
fill="#000000" stroke="none">
<path d="M0 3680 l0 -3680 15440 0 15440 0 0 3680 0 3680 -15440 0 -15440 0 0
-3680z m7465 3232 c39 -6 90 -15 115 -22 25 -6 65 -15 90 -19 25 -5 99 -26
165 -49 249 -83 424 -177 705 -378 48 -34 276 -261 306 -304 13 -19 40 -55 59
-80 38 -49 90 -126 123 -180 36 -58 141 -267 158 -312 69 -184 93 -263 115
-370 5 -27 14 -72 21 -100 17 -77 16 -748 -1 -808 -7 -25 -16 -70 -21 -100
-14 -88 -21 -115 -91 -340 -16 -52 -39 -117 -51 -145 -11 -27 -29 -72 -40
-100 -11 -27 -34 -81 -50 -120 -43 -100 -271 -556 -323 -645 -24 -41 -57 -100
-73 -130 -17 -31 -50 -86 -73 -122 -24 -37 -75 -117 -114 -178 -99 -156 -266
-402 -380 -560 -30 -41 -66 -91 -80 -110 -14 -19 -41 -55 -60 -80 -19 -25 -46
-61 -60 -80 -64 -88 -76 -104 -107 -141 -18 -21 -51 -61 -73 -89 -22 -28 -64
-79 -92 -113 -29 -34 -74 -88 -100 -120 -77 -94 -256 -278 -285 -293 -19 -10
-62 -14 -138 -14 -163 0 -185 15 -393 257 -54 63 -77 91 -182 223 -22 28 -58
73 -80 100 -38 47 -82 103 -143 180 -15 19 -36 46 -45 60 -9 14 -33 45 -52 70
-19 25 -55 74 -80 110 -25 36 -70 99 -100 140 -68 94 -313 462 -380 570 -27
44 -60 97 -73 116 -12 19 -32 52 -43 72 -11 20 -45 80 -74 132 -65 116 -271
528 -314 628 -17 39 -44 102 -61 140 -26 59 -92 255 -147 437 l-18 60 -3 -50
c-2 -27 2 -66 8 -85 14 -44 7 -939 -8 -1055 -17 -127 -38 -247 -60 -340 -9
-37 -77 -239 -116 -343 -17 -45 -122 -253 -158 -312 -50 -83 -155 -238 -188
-278 -56 -70 -243 -254 -289 -287 -23 -16 -61 -46 -84 -65 -40 -34 -83 -64
-157 -108 -59 -36 -307 -161 -352 -178 -107 -40 -246 -87 -280 -95 -21 -5 -57
-14 -80 -20 -201 -50 -243 -51 -1285 -53 l-982 -1 -23 23 -23 23 0 2599 0
2599 23 23 23 23 982 -1 c661 -1 1005 -5 1052 -12 166 -26 192 -31 235 -42 25
-6 61 -15 80 -19 32 -8 175 -57 278 -95 137 -51 349 -174 547 -316 50 -35 329
-322 370 -379 17 -23 41 -56 55 -73 14 -17 37 -52 52 -77 41 -70 206 -396 222
-438 33 -87 82 -244 102 -328 l8 -30 4 30 c2 16 -1 45 -8 65 -8 24 -10 116 -7
295 5 279 16 382 56 540 6 22 14 58 19 80 8 36 31 103 76 223 51 136 174 349
316 547 31 44 337 345 389 384 146 108 394 248 523 297 72 27 210 72 256 83
23 6 61 16 85 22 23 6 56 15 73 20 17 5 59 9 95 10 35 0 73 4 84 9 26 12 540
5 630 -8z m20047 -530 l23 -23 5 -1351 5 -1351 35 42 c19 23 62 73 95 111 33
38 83 97 110 130 28 33 82 96 120 140 90 103 177 204 240 280 28 33 77 92 110
130 33 38 83 97 110 130 96 116 146 168 173 179 19 8 212 11 669 9 l642 -3 22
-22 c16 -15 24 -38 27 -77 6 -78 -1 -99 -63 -169 -30 -34 -76 -88 -102 -120
-48 -58 -129 -150 -268 -307 -168 -190 -222 -251 -260 -300 -53 -67 -140 -168
-250 -290 -49 -55 -117 -131 -150 -170 -33 -39 -90 -104 -128 -144 l-68 -73
113 -167 c62 -91 122 -180 133 -197 11 -16 30 -44 42 -62 30 -44 553 -820 578
-858 11 -16 30 -44 42 -62 13 -18 31 -45 40 -61 10 -15 28 -42 40 -60 83 -119
414 -617 427 -643 32 -64 7 -149 -54 -180 -36 -18 -1225 -18 -1257 0 -24 13
-132 175 -458 687 -137 215 -251 392 -334 518 -45 70 -92 144 -102 164 -11 21
-23 38 -27 38 -4 0 -62 -55 -129 -123 l-123 -122 -2 -562 -3 -562 -23 -23 -23
-23 -549 0 -549 0 -23 23 -23 23 -2 2727 c-2 2175 0 2732 10 2752 25 50 23 50
599 47 l537 -2 23 -23z m-15657 -210 c209 -38 260 -53 483 -136 111 -42 305
-155 443 -257 54 -41 200 -182 226 -219 72 -104 111 -163 138 -208 l30 -50 5
389 c5 388 5 389 28 411 l23 23 2129 0 2129 0 23 -23 23 -23 0 -479 0 -479
-23 -23 -23 -23 -754 -3 -755 -2 -2 -2095 -3 -2094 -23 -23 -23 -23 -579 0
-579 0 -23 23 -23 23 -3 2094 -2 2095 -724 0 -725 0 11 -32 c11 -36 23 -86 40
-163 6 -27 12 -128 12 -222 1 -167 0 -173 -22 -195 l-23 -23 -579 0 -579 0
-23 22 c-17 18 -23 39 -29 105 -16 185 -59 286 -166 389 -91 88 -146 121 -250
153 -49 15 -103 32 -121 37 -42 13 -362 13 -405 0 -17 -5 -71 -22 -120 -37
-95 -29 -158 -65 -225 -128 -83 -78 -152 -207 -152 -285 0 -42 35 -143 65
-191 28 -43 116 -127 170 -162 42 -28 294 -151 380 -187 28 -11 109 -39 180
-61 72 -23 142 -46 158 -51 34 -11 64 -22 147 -49 191 -64 251 -86 405 -152
104 -44 322 -154 385 -193 30 -19 76 -45 102 -59 26 -14 49 -30 53 -36 3 -6
36 -30 73 -54 85 -56 277 -250 338 -341 96 -144 198 -377 227 -520 14 -68 13
-646 -1 -710 -32 -145 -27 -134 -119 -325 -30 -63 -70 -137 -88 -165 -40 -60
-273 -291 -330 -327 -106 -67 -239 -139 -302 -162 -21 -8 -63 -24 -93 -36
-100 -40 -135 -53 -170 -61 -19 -4 -55 -13 -80 -19 -219 -54 -400 -72 -740
-72 -279 0 -463 15 -645 51 -183 36 -405 115 -592 211 -185 95 -244 128 -275
156 -13 11 -48 37 -78 56 -52 34 -207 189 -259 258 -85 113 -177 276 -216 380
-8 22 -22 59 -31 83 -9 23 -20 58 -25 77 -4 19 -13 55 -20 80 -19 77 -31 199
-33 337 -1 126 0 134 22 155 l23 23 579 0 579 0 23 -22 c17 -18 23 -36 25 -90
2 -38 12 -97 23 -133 10 -36 26 -91 35 -122 22 -76 63 -137 154 -231 100 -103
230 -170 386 -199 28 -5 77 -14 110 -20 74 -13 305 -14 400 -1 153 21 254 69
358 171 83 81 97 102 123 177 25 76 10 247 -29 320 -17 32 -153 167 -203 202
-37 26 -219 117 -271 137 -21 8 -76 29 -123 46 -47 18 -152 54 -235 82 -82 27
-163 54 -180 60 -217 75 -219 76 -367 139 -38 16 -101 43 -140 60 -210 90
-370 180 -558 315 -74 53 -302 291 -355 369 -88 133 -156 281 -187 410 -25
103 -31 176 -31 375 0 245 10 323 61 476 27 81 118 262 176 349 72 107 215
245 341 330 105 70 308 177 397 211 120 45 187 68 223 76 22 5 58 13 80 19 59
15 132 29 197 37 31 4 60 11 64 15 12 12 860 1 929 -11z m7640 -1299 c74 -11
100 -25 125 -66 18 -29 20 -52 20 -252 l0 -220 98 96 c106 105 228 191 360
254 229 110 383 157 607 187 105 14 690 14 780 0 123 -19 169 -29 215 -45 25
-9 53 -17 62 -17 10 0 37 -9 60 -19 24 -10 68 -29 98 -41 128 -51 208 -97 360
-206 49 -35 118 -103 146 -144 14 -19 38 -53 55 -75 40 -54 146 -264 171 -339
20 -60 29 -94 50 -191 8 -33 14 -392 19 -1075 8 -1088 14 -1232 58 -1407 6
-24 15 -60 20 -80 15 -64 27 -96 56 -152 24 -48 27 -63 23 -128 -3 -59 -8 -77
-26 -95 l-23 -23 -557 -3 c-539 -2 -558 -2 -589 18 -30 18 -83 103 -83 133 0
7 -6 21 -12 30 -12 16 -18 14 -71 -23 -58 -41 -298 -165 -352 -182 -104 -34
-258 -50 -475 -50 -202 0 -322 9 -410 31 -25 7 -61 16 -80 20 -73 17 -321 137
-425 206 -72 48 -196 168 -266 257 -15 18 -53 87 -86 153 -53 107 -74 163
-113 300 -14 50 -8 517 8 590 23 108 30 131 47 170 137 315 235 429 505 593
104 63 302 147 410 173 19 4 55 13 80 19 210 52 407 70 823 76 l317 5 0 86 c0
48 -4 100 -9 117 -5 17 -15 51 -22 76 -21 74 -38 102 -108 173 -102 106 -142
120 -321 120 -169 0 -242 -24 -333 -112 -66 -63 -98 -129 -110 -230 -3 -26
-14 -53 -27 -65 -20 -21 -25 -21 -580 -21 l-559 0 -23 22 c-17 18 -23 37 -26
88 -3 52 -8 68 -23 76 -23 12 -332 6 -404 -8 -78 -16 -191 -57 -237 -88 -69
-46 -158 -136 -186 -190 l-27 -50 -5 -1232 -5 -1232 -23 -23 -23 -23 -549 0
-549 0 -23 23 -23 23 -3 1932 c-2 1441 1 1939 9 1960 24 57 22 57 569 57 543
0 543 0 568 -55 7 -14 12 -65 12 -113 l0 -86 68 65 c83 80 105 95 220 153 108
54 166 76 207 76 17 0 37 5 45 10 18 12 407 7 495 -7z m5510 -1 c39 -6 88 -15
110 -21 22 -5 58 -14 80 -19 36 -8 102 -31 223 -76 97 -36 230 -113 342 -197
56 -41 201 -182 226 -219 14 -19 38 -53 55 -75 32 -43 139 -249 164 -315 8
-22 22 -59 31 -82 16 -42 23 -68 46 -173 6 -27 12 -137 12 -242 1 -188 0 -193
-22 -215 l-23 -23 -519 0 c-519 0 -519 0 -541 22 -15 15 -23 38 -26 75 -6 64
-42 177 -84 261 -60 120 -192 231 -316 265 -24 7 -60 17 -82 23 -38 11 -65 10
-166 -9 -120 -23 -192 -62 -276 -149 -90 -93 -116 -137 -157 -256 -56 -161
-74 -317 -74 -627 0 -301 27 -531 74 -640 9 -19 26 -60 39 -90 16 -37 49 -82
104 -138 102 -106 171 -144 300 -164 136 -20 142 -20 202 1 33 12 67 21 76 21
39 0 126 56 200 128 80 78 105 115 125 187 6 22 19 68 28 103 30 105 -19 97
575 97 l518 0 23 -23 c22 -22 23 -28 22 -195 0 -97 -5 -189 -12 -212 -6 -22
-15 -58 -20 -80 -17 -77 -117 -285 -187 -390 -66 -98 -273 -306 -370 -371
-144 -96 -400 -210 -550 -246 -172 -40 -274 -50 -525 -50 -325 0 -461 18 -676
90 -162 54 -345 153 -539 292 -41 29 -182 174 -224 230 -85 113 -211 341 -256
460 -8 22 -22 59 -31 82 -9 24 -21 60 -25 81 -9 37 -19 76 -40 160 -38 152
-51 317 -51 667 0 350 13 515 51 668 6 23 15 59 20 80 15 63 43 154 77 245 26
69 141 291 186 359 70 103 86 124 183 225 91 96 107 109 250 206 98 67 383
207 423 207 9 0 37 8 62 17 52 18 117 31 212 41 36 4 70 11 74 15 11 11 594 1
679 -11z"/>
<path d="M6460 5860 c-8 -5 -28 -10 -45 -10 -54 -1 -152 -42 -237 -99 -57 -39
-197 -184 -236 -244 -28 -44 -47 -96 -73 -202 -6 -22 -15 -54 -20 -71 -14 -46
-11 -90 10 -158 11 -33 27 -86 36 -117 15 -53 82 -170 105 -184 6 -4 22 -28
35 -55 34 -68 34 -144 0 -191 -92 -128 -141 -215 -156 -279 -4 -19 -13 -55
-19 -80 -23 -88 -23 -126 -1 -187 12 -33 21 -72 21 -86 0 -31 60 -156 99 -206
34 -43 139 -148 182 -182 45 -35 155 -90 199 -100 19 -5 55 -13 80 -19 88 -23
126 -23 187 -1 33 12 72 21 86 21 28 0 181 71 192 90 3 6 34 28 68 50 53 35
69 40 117 40 48 0 64 -5 117 -40 34 -22 65 -44 68 -50 10 -17 146 -82 190 -92
22 -5 58 -14 80 -19 81 -22 122 -21 182 0 33 12 72 21 86 21 31 0 156 60 206
99 43 34 148 139 182 182 36 46 90 155 101 202 4 20 13 56 19 80 15 54 15 140
0 197 -7 25 -16 61 -20 80 -15 64 -64 151 -156 279 -34 47 -34 123 0 191 13
27 29 51 35 55 23 14 90 131 105 184 9 31 25 84 36 117 21 68 24 112 10 158
-5 17 -14 49 -20 71 -41 167 -65 210 -185 333 -129 132 -218 185 -361 214 -95
20 -235 11 -330 -20 -62 -19 -112 -49 -237 -139 -26 -19 -44 -23 -108 -23 -64
0 -82 4 -108 23 -160 115 -203 137 -317 159 -77 15 -188 20 -205 8z m1170
-425 l0 -265 -275 0 c-264 0 -275 1 -275 19 0 11 -3 26 -6 35 -4 11 -1 16 10
16 9 0 16 8 16 19 0 11 5 23 10 26 6 3 10 14 10 24 0 72 184 275 305 336 38
19 77 35 86 35 10 0 21 5 24 10 3 6 26 10 51 10 l44 0 0 -265z m555 103 c37
-17 94 -136 95 -196 0 -37 -27 -78 -59 -92 -42 -17 -57 -8 -65 35 -8 42 -51
141 -65 150 -6 3 -16 19 -24 35 -11 22 -12 32 -3 43 28 36 76 46 121 25z
m-555 -654 l0 -277 63 6 c34 3 71 9 81 13 17 7 18 4 12 -29 -5 -28 -4 -37 7
-37 36 0 119 -57 199 -137 48 -48 88 -93 88 -99 0 -6 9 -19 20 -29 11 -10 20
-26 20 -36 0 -10 9 -34 20 -54 13 -24 20 -54 20 -90 l0 -55 -541 0 -542 0 6
-52 c3 -29 9 -67 12 -85 7 -30 6 -32 -26 -35 -31 -3 -37 -9 -66 -67 -74 -149
-283 -301 -414 -301 l-57 0 -7 550 -8 550 -36 -1 c-29 0 -32 -2 -16 -9 15 -7
16 -9 4 -9 -9 -1 -32 -4 -50 -8 -33 -6 -34 -6 -16 14 18 21 14 33 -13 33 -21
0 -115 47 -130 65 -7 8 -18 15 -24 15 -6 0 -42 31 -79 68 -66 66 -137 183
-137 223 0 10 -4 21 -10 24 -5 3 -10 33 -10 66 l0 59 815 0 815 0 0 -276z
m599 201 c46 -23 57 -65 36 -132 -20 -62 -42 -89 -80 -99 -27 -7 -85 12 -85
28 0 5 11 33 24 62 14 30 28 71 31 92 12 72 20 77 74 49z m-4 -1097 c71 -32
71 -154 0 -186 -32 -15 -47 -15 -80 0 -30 13 -30 21 -5 73 11 22 19 56 20 76
0 52 14 60 65 37z"/>
<path d="M7070 5060 c0 -77 -95 -248 -178 -320 -61 -52 -168 -106 -242 -122
l-59 -12 70 -18 c158 -40 284 -141 357 -286 22 -45 44 -102 48 -127 6 -45 24
-63 24 -25 0 77 95 248 178 320 61 52 168 106 242 122 l59 12 -70 18 c-137 34
-246 111 -322 226 -44 65 -87 171 -87 212 0 11 -4 20 -10 20 -5 0 -10 -9 -10
-20z"/>
<path d="M5123 5445 c-7 -8 -13 -21 -13 -30 0 -8 -4 -15 -10 -15 -5 0 -10 -13
-10 -30 0 -16 -4 -30 -10 -30 -5 0 -10 -13 -10 -30 0 -16 -4 -30 -10 -30 -5 0
-10 -15 -10 -34 0 -19 -4 -38 -10 -41 -5 -3 -10 -21 -10 -40 0 -19 -4 -37 -10
-40 -5 -3 -10 -26 -10 -50 0 -24 -4 -47 -10 -50 -5 -3 -10 -34 -10 -69 0 -34
-5 -67 -10 -72 -20 -20 0 -517 21 -539 5 -5 9 -19 9 -32 0 -70 145 -559 190
-637 11 -20 20 -42 20 -49 0 -7 14 -39 30 -72 17 -33 30 -64 30 -69 0 -14 200
-415 230 -461 14 -22 37 -62 50 -90 13 -27 32 -61 41 -75 9 -14 26 -41 37 -61
42 -76 47 -84 52 -89 3 -3 11 -15 18 -27 31 -56 38 -68 55 -87 9 -11 17 -26
17 -33 0 -7 4 -13 9 -13 5 0 11 -8 14 -18 7 -22 37 -71 60 -96 9 -11 17 -26
17 -33 0 -7 4 -13 8 -13 5 0 15 -12 23 -27 8 -16 22 -37 32 -47 9 -11 17 -25
17 -31 0 -7 9 -20 20 -30 11 -10 20 -23 20 -30 0 -7 9 -20 20 -30 11 -10 20
-23 20 -30 0 -6 14 -24 30 -40 17 -16 30 -34 30 -40 0 -7 9 -20 20 -30 11 -10
20 -23 20 -30 0 -6 14 -24 30 -40 17 -16 30 -34 30 -40 0 -7 9 -20 20 -30 11
-10 20 -22 20 -28 0 -5 12 -24 28 -43 15 -18 41 -51 57 -74 66 -90 92 -123
210 -270 22 -27 58 -72 80 -100 105 -131 128 -160 182 -223 32 -37 96 -108
141 -156 68 -72 92 -91 125 -99 79 -19 95 -10 223 123 66 68 140 150 167 182
26 32 71 86 100 120 28 34 70 85 92 113 22 27 58 72 80 100 22 27 54 67 70 90
17 22 44 58 60 80 17 22 44 58 60 80 17 23 42 56 58 74 15 19 27 38 27 43 0 6
9 18 20 28 11 10 20 23 20 30 0 6 14 24 30 40 17 16 30 34 30 40 0 7 9 20 20
30 11 10 20 23 20 30 0 7 9 20 20 30 11 10 20 23 20 28 0 6 7 19 17 29 9 10
21 27 27 37 6 10 30 46 54 79 23 34 42 66 42 71 0 6 5 11 10 11 6 0 10 6 10
13 0 7 9 23 20 35 11 12 20 25 20 30 0 4 8 17 18 28 22 25 52 74 59 97 3 9 9
17 14 17 5 0 9 6 9 13 0 7 8 22 18 33 19 22 33 45 74 122 15 30 36 66 46 80
10 15 24 41 32 57 8 17 26 48 40 70 31 47 250 487 250 501 0 5 13 36 30 69 16
33 30 65 30 71 0 5 9 29 20 52 11 22 20 47 20 55 0 7 4 17 9 23 11 11 63 163
85 249 9 33 25 92 36 130 10 39 20 91 20 117 0 26 5 50 10 53 6 3 10 21 10 40
0 19 5 37 10 40 6 4 10 108 10 280 0 172 -4 276 -10 280 -5 3 -10 26 -10 50 0
24 -4 47 -10 50 -5 3 -10 26 -10 50 0 24 -4 47 -10 50 -5 3 -10 22 -10 41 0
19 -4 34 -10 34 -5 0 -10 14 -10 30 0 17 -4 30 -10 30 -5 0 -10 14 -10 30 0
17 -4 30 -10 30 -5 0 -10 14 -10 30 0 17 -4 30 -10 30 -5 0 -10 9 -10 20 0 20
-7 20 -340 20 l-340 0 0 -30 c0 -16 5 -30 10 -30 6 0 10 -18 10 -40 0 -22 5
-40 10 -40 6 0 10 -55 10 -144 0 -86 -4 -147 -10 -151 -5 -3 -10 -17 -10 -30
0 -13 -4 -27 -10 -30 -5 -3 -10 -22 -10 -41 0 -22 -6 -37 -15 -40 -8 -4 -15
-12 -15 -18 0 -18 -49 -113 -65 -126 -8 -7 -15 -18 -15 -24 0 -7 -13 -25 -30
-41 -16 -16 -30 -34 -30 -41 0 -15 51 -94 60 -94 9 0 70 -95 70 -109 0 -6 9
-26 20 -46 11 -20 20 -46 20 -58 0 -12 9 -53 20 -92 29 -103 26 -220 -7 -353
-14 -59 -29 -109 -32 -112 -3 -3 -23 -39 -44 -80 -53 -102 -123 -186 -219
-262 -54 -42 -205 -114 -283 -133 -111 -29 -303 -31 -406 -5 -96 24 -245 94
-272 128 -10 12 -32 29 -48 38 -33 17 -52 10 -104 -35 -44 -38 -189 -106 -270
-126 -111 -29 -303 -31 -406 -5 -95 23 -239 91 -284 132 -16 15 -33 28 -38 28
-10 0 -97 87 -97 97 0 5 -13 22 -28 38 -39 43 -110 190 -122 253 -5 30 -17 74
-25 98 -22 64 -19 212 5 299 11 39 20 80 20 92 0 12 9 38 20 58 11 20 20 41
20 48 0 7 18 38 40 70 22 31 40 61 40 66 0 4 9 16 20 26 11 10 20 23 20 29 -1
6 -22 40 -49 74 -56 74 -91 136 -91 162 0 11 -4 22 -10 25 -5 3 -10 21 -10 40
0 19 -4 37 -10 40 -5 3 -10 17 -10 30 0 13 -4 27 -10 30 -6 4 -10 65 -10 151
0 89 4 144 10 144 6 0 10 18 10 40 0 22 5 40 10 40 6 0 10 14 10 30 l0 30
-317 0 c-262 -1 -320 -3 -330 -15z"/>
<path d="M2100 3470 l0 -1601 238 5 c234 4 359 14 437 35 22 5 58 14 80 20
218 52 455 232 577 440 138 236 184 391 229 776 21 178 9 669 -20 840 -25 146
-43 224 -65 285 -8 25 -16 53 -16 63 0 23 -126 274 -159 315 -102 131 -248
255 -369 317 -59 29 -155 58 -287 87 -27 6 -184 13 -347 15 l-298 4 0 -1601z"/>
<path d="M946 3000 c-4 -1128 -4 -2055 -1 -2060 4 -7 303 -10 855 -10 989 0
1070 5 1360 81 98 26 252 79 264 90 6 5 16 9 24 9 19 0 255 117 308 152 23 15
45 28 48 28 9 0 63 38 113 80 23 19 61 49 84 65 76 53 359 347 359 372 0 5 9
18 20 28 11 10 20 23 20 30 0 7 9 20 20 30 11 10 20 24 20 30 0 7 7 18 15 25
9 7 25 33 35 56 11 24 24 45 29 49 13 7 41 64 41 82 0 7 5 13 10 13 6 0 10 9
10 20 0 11 5 20 10 20 6 0 10 7 10 15 0 8 9 30 20 50 11 20 20 44 20 55 0 11
5 20 10 20 6 0 10 9 10 19 0 11 4 23 10 26 6 3 10 17 10 30 0 13 5 27 10 30 6
3 10 15 10 26 0 10 4 27 9 37 5 9 18 49 30 87 17 61 26 102 56 265 24 130 29
249 28 630 0 410 -6 556 -24 574 -5 6 -9 34 -9 62 0 29 -4 56 -10 59 -5 3 -10
19 -10 35 0 16 -4 32 -10 35 -5 3 -10 21 -10 40 0 19 -4 37 -10 40 -5 3 -10
17 -10 30 0 13 -4 27 -10 30 -6 3 -10 21 -10 40 0 19 -4 37 -10 40 -5 3 -10
15 -10 25 0 11 -9 35 -20 55 -11 20 -20 41 -20 48 0 15 -102 221 -112 225 -5
2 -8 12 -8 23 0 10 -4 19 -10 19 -5 0 -10 9 -10 20 0 11 -4 20 -10 20 -5 0
-10 8 -10 18 0 10 -9 24 -20 32 -11 8 -20 22 -20 32 0 10 -4 18 -10 18 -5 0
-10 9 -10 19 0 10 -7 22 -16 25 -9 3 -293 5 -632 5 -339 -1 -608 -4 -597 -6
11 -3 27 -14 36 -24 9 -11 23 -19 30 -19 8 0 21 -9 29 -20 8 -11 20 -20 28
-20 13 0 154 -143 161 -163 2 -7 14 -24 28 -38 34 -37 173 -318 173 -351 0
-15 5 -30 10 -33 6 -3 10 -17 10 -30 0 -13 5 -27 10 -30 6 -3 10 -24 10 -45 0
-21 5 -42 10 -45 6 -3 10 -26 10 -50 0 -24 5 -47 10 -50 6 -3 10 -30 10 -59 0
-28 4 -56 9 -61 22 -23 33 -750 13 -915 -17 -148 -30 -229 -48 -310 -9 -41
-19 -87 -21 -103 -3 -15 -9 -30 -14 -33 -5 -3 -9 -16 -9 -29 0 -13 -5 -27 -10
-30 -6 -3 -10 -17 -10 -30 0 -13 -5 -27 -10 -30 -5 -3 -10 -17 -10 -31 0 -13
-4 -24 -10 -24 -5 0 -10 -9 -10 -20 0 -11 -4 -20 -10 -20 -5 0 -10 -9 -10 -20
0 -11 -4 -20 -10 -20 -5 0 -10 -9 -10 -19 0 -11 -3 -21 -7 -23 -10 -4 -42 -57
-50 -80 -3 -10 -9 -18 -14 -18 -5 0 -9 -6 -9 -12 0 -7 -14 -27 -30 -45 -17
-18 -30 -36 -30 -40 0 -12 -134 -143 -146 -143 -6 0 -19 -9 -29 -20 -10 -11
-24 -20 -30 -20 -7 0 -18 -6 -25 -14 -12 -15 -171 -95 -225 -114 -62 -21 -203
-52 -285 -62 -46 -5 -225 -10 -397 -10 l-313 0 0 1640 0 1640 -518 0 -519 0
-7 -2050z"/>
<path d="M4880 4275 c0 -5 5 -17 10 -25 5 -8 10 -10 10 -5 0 6 -5 17 -10 25
-5 8 -10 11 -10 5z"/>
<path d="M4900 4175 c0 -16 5 -37 10 -45 7 -12 10 -8 10 15 0 17 -5 37 -10 45
-7 12 -10 8 -10 -15z"/>
<path d="M26446 2999 c-4 -1153 -3 -2056 2 -2061 4 -4 228 -7 498 -6 l489 3 3
581 2 580 180 179 181 178 29 -28 c17 -16 30 -33 30 -37 0 -5 9 -18 20 -30 11
-12 20 -28 20 -35 0 -7 5 -13 10 -13 6 0 10 -9 10 -20 0 -11 4 -20 8 -20 5 0
15 -12 23 -27 8 -16 22 -37 32 -47 9 -11 17 -26 17 -33 0 -7 4 -13 9 -13 5 0
16 -16 25 -35 9 -19 21 -37 26 -40 6 -3 19 -25 30 -49 10 -23 26 -49 35 -56 8
-7 15 -18 15 -25 0 -6 9 -20 20 -30 11 -10 20 -23 20 -30 0 -7 9 -20 20 -30
11 -10 20 -24 20 -30 0 -7 7 -18 15 -25 9 -7 24 -29 33 -49 9 -20 47 -82 85
-138 37 -56 67 -104 67 -107 0 -2 34 -56 76 -118 42 -62 84 -126 93 -143 39
-73 194 -296 211 -305 12 -6 216 -10 565 -10 444 0 547 2 551 13 4 12 -343
545 -386 592 -10 11 -28 39 -40 62 -12 23 -28 47 -36 53 -7 7 -27 36 -44 64
-16 29 -39 61 -50 71 -11 10 -20 23 -20 30 0 7 -9 20 -20 30 -11 10 -20 23
-20 30 0 7 -9 20 -20 30 -11 10 -20 23 -20 30 0 7 -9 20 -20 30 -11 10 -20 23
-20 30 0 7 -9 20 -20 30 -11 10 -20 23 -20 30 0 7 -9 20 -20 30 -11 10 -20 24
-20 32 0 7 -4 13 -8 13 -5 0 -15 12 -23 28 -8 15 -22 36 -31 46 -10 11 -18 26
-18 33 0 7 -4 13 -8 13 -5 0 -15 12 -23 27 -8 16 -22 37 -31 47 -10 11 -18 26
-18 33 0 7 -4 13 -8 13 -5 0 -15 12 -23 28 -8 15 -22 36 -31 46 -10 11 -18 26
-18 33 0 7 -4 13 -8 13 -5 0 -15 12 -23 27 -8 16 -26 42 -41 58 -16 17 -35 44
-43 62 -9 18 -26 45 -39 60 -55 66 -286 424 -286 443 0 12 13 35 30 53 16 18
30 35 30 39 0 4 32 40 70 79 39 40 70 76 70 81 0 4 27 36 60 70 33 35 60 68
60 73 0 6 41 51 90 100 50 49 90 94 90 100 0 6 27 37 60 70 33 33 60 64 60 70
0 6 18 29 40 50 22 21 40 43 40 49 0 5 30 42 68 82 37 40 100 111 139 156 40
46 107 120 148 166 41 46 75 88 75 95 0 7 23 35 50 62 28 27 50 54 50 60 0 6
18 29 40 50 22 21 40 43 40 47 0 4 -256 8 -568 8 l-568 0 -62 -63 c-34 -34
-62 -66 -62 -71 0 -4 -46 -59 -102 -121 -57 -63 -130 -146 -163 -185 -33 -39
-88 -102 -122 -139 -35 -37 -63 -72 -63 -77 0 -5 -31 -41 -70 -79 -38 -38 -70
-74 -70 -80 0 -6 -22 -33 -50 -60 -27 -27 -50 -54 -50 -60 0 -6 -27 -37 -60
-70 -33 -33 -60 -64 -60 -70 0 -6 -18 -29 -40 -50 -22 -21 -40 -43 -40 -49 0
-8 -21 -32 -143 -165 l-32 -34 -6 24 c-4 13 -7 401 -8 862 l-1 837 -488 0
-489 0 -7 -2051z"/>
<path d="M9550 5025 c0 -14 -4 -25 -10 -25 -5 0 -10 -18 -10 -40 0 -22 -4 -40
-10 -40 -5 0 -10 -24 -10 -54 0 -30 -4 -58 -10 -61 -6 -4 -10 -60 -10 -135 0
-75 4 -131 10 -135 6 -3 10 -30 10 -60 0 -30 5 -57 10 -60 6 -3 10 -21 10 -40
0 -19 5 -37 10 -40 6 -3 10 -17 10 -30 0 -13 5 -27 10 -30 6 -3 10 -16 10 -28
0 -12 21 -62 46 -112 61 -119 68 -132 87 -153 10 -10 17 -23 17 -28 0 -13 333
-344 346 -344 6 0 23 -13 39 -30 16 -16 34 -30 40 -30 7 0 20 -9 30 -20 10
-11 24 -20 30 -20 7 0 18 -7 25 -15 7 -8 41 -29 76 -45 35 -17 66 -35 69 -40
6 -10 149 -80 162 -80 5 0 35 -13 68 -30 33 -16 65 -30 70 -30 6 0 37 -13 70
-30 33 -16 67 -30 75 -30 9 0 20 -4 25 -9 6 -5 53 -23 105 -41 52 -17 109 -38
127 -46 17 -8 36 -14 42 -14 17 0 281 -89 328 -111 24 -10 49 -19 57 -19 8 0
18 -4 21 -10 3 -5 15 -10 25 -10 11 0 35 -9 55 -20 20 -11 41 -20 49 -20 18 0
233 -110 286 -147 64 -44 200 -189 200 -213 0 -11 4 -20 9 -20 5 0 11 -15 14
-32 3 -18 11 -62 17 -98 14 -77 7 -272 -10 -315 -37 -91 -60 -127 -124 -193
-74 -76 -147 -119 -271 -160 -166 -55 -518 -61 -745 -13 -200 42 -321 101
-432 210 -43 41 -78 81 -78 87 0 6 -8 18 -18 27 -10 9 -24 32 -32 52 -8 19
-17 35 -22 35 -4 0 -8 10 -8 23 0 13 -4 27 -8 33 -5 5 -15 36 -22 69 -7 33
-17 65 -21 71 -5 5 -10 53 -11 105 l-3 94 -524 3 -524 2 7 -114 c4 -63 13
-145 21 -183 8 -37 17 -81 20 -98 11 -50 47 -159 56 -169 5 -6 9 -17 9 -25 1
-39 102 -216 209 -366 43 -59 227 -235 292 -277 30 -20 61 -44 68 -52 8 -9 17
-16 22 -16 5 0 28 -12 52 -27 153 -99 458 -223 671 -273 327 -78 800 -91 1143
-31 171 30 364 81 387 102 6 5 16 9 23 9 8 0 33 9 55 20 23 11 46 20 51 20 14
0 140 63 183 92 23 15 44 28 47 28 30 0 339 295 393 375 29 43 124 240 124
257 0 8 4 18 9 24 13 13 47 153 61 252 23 159 -4 546 -41 586 -5 6 -9 20 -9
32 0 13 -4 26 -10 29 -5 3 -10 14 -10 24 0 25 -107 233 -160 311 -46 68 -304
330 -325 330 -6 0 -20 9 -30 20 -10 11 -22 20 -27 20 -5 0 -21 12 -36 26 -15
14 -46 34 -69 45 -23 10 -45 23 -48 29 -3 6 -26 19 -50 30 -24 11 -46 24 -50
29 -6 11 -207 111 -221 111 -5 0 -31 11 -57 24 -26 14 -65 30 -85 37 -20 6
-41 15 -47 19 -5 4 -48 20 -95 35 -47 15 -104 36 -127 46 -24 11 -70 26 -103
35 -33 8 -72 22 -87 30 -16 7 -34 14 -42 14 -18 0 -149 39 -173 51 -10 5 -27
9 -37 9 -11 0 -23 5 -26 10 -3 6 -15 10 -25 10 -11 0 -35 9 -55 20 -20 11 -41
20 -48 20 -7 0 -95 41 -197 92 -175 87 -189 97 -265 173 -44 44 -86 94 -94
110 -7 17 -17 38 -22 47 -5 10 -9 27 -9 37 0 11 -4 23 -10 26 -6 4 -10 65 -10
151 0 89 4 144 10 144 6 0 10 14 10 30 0 17 5 30 10 30 6 0 10 9 10 20 0 11 5
20 10 20 6 0 10 8 10 18 0 10 9 24 20 32 11 8 20 22 20 31 0 10 6 20 13 22 6
3 -237 6 -540 6 l-553 1 0 -25z"/>
<path d="M12059 5021 c17 -16 31 -36 31 -45 0 -9 5 -16 10 -16 6 0 10 -9 10
-20 0 -11 5 -20 10 -20 6 0 10 -9 10 -20 0 -11 5 -20 10 -20 6 0 10 -13 10
-29 0 -17 5 -33 10 -36 6 -3 10 -21 10 -40 0 -19 5 -37 10 -40 6 -3 10 -48 10
-101 l0 -94 520 0 520 0 0 99 c0 56 -4 103 -10 106 -5 3 -10 26 -10 51 0 24
-4 44 -10 44 -5 0 -10 18 -10 40 0 22 -4 40 -10 40 -5 0 -10 14 -10 30 0 17
-4 30 -10 30 -5 0 -10 13 -10 29 0 17 -6 31 -16 35 -9 3 -261 6 -561 6 l-545
0 31 -29z"/>
<path d="M14830 2990 l0 -2060 519 0 c334 0 522 4 526 10 3 5 3 932 -1 2060
l-7 2050 -519 0 -518 0 0 -2060z"/>
<path d="M19085 4770 c-3 -5 -26 -10 -50 -10 -24 0 -47 -4 -50 -10 -3 -5 -14
-10 -23 -10 -22 0 -197 -87 -212 -106 -7 -8 -17 -14 -22 -14 -16 0 -247 -222
-275 -265 -25 -38 -68 -85 -79 -85 -2 0 -4 29 -4 64 0 36 -4 68 -10 71 -6 4
-10 61 -10 139 0 194 49 176 -471 176 l-426 0 -20 -22 -21 -23 -3 -1870 -4
-1870 495 0 495 0 0 1252 c0 1246 0 1251 20 1275 12 13 27 37 35 53 17 36 109
135 126 135 6 0 17 7 24 15 29 35 193 97 330 125 64 13 471 8 535 -6 35 -8 40
-13 37 -34 -1 -14 -5 -53 -9 -87 l-5 -63 501 0 501 0 0 44 c0 115 91 271 185
317 22 11 54 28 70 39 17 10 44 19 62 19 17 1 35 6 38 11 4 6 80 10 195 10
115 0 191 -4 195 -10 3 -5 21 -10 38 -11 18 0 46 -9 62 -20 17 -10 37 -22 45
-25 38 -17 133 -123 161 -181 53 -111 69 -198 69 -385 l0 -167 -347 -5 c-471
-6 -631 -22 -885 -86 -105 -27 -160 -45 -223 -74 -27 -13 -66 -29 -85 -37 -19
-7 -54 -25 -77 -41 -23 -15 -44 -28 -48 -28 -17 0 -168 -111 -223 -164 -60
-57 -182 -223 -182 -246 0 -5 -4 -10 -10 -10 -5 0 -10 -9 -10 -20 0 -11 -4
-20 -10 -20 -5 0 -10 -9 -10 -19 0 -11 -4 -23 -10 -26 -5 -3 -10 -17 -10 -31
0 -13 -4 -24 -9 -24 -5 0 -12 -12 -15 -27 -4 -16 -11 -46 -17 -68 -55 -229
-51 -456 11 -643 31 -94 101 -239 140 -292 57 -75 220 -235 285 -279 75 -50
273 -151 297 -151 8 0 18 -4 24 -9 10 -11 126 -42 229 -62 105 -21 436 -18
545 4 117 24 160 39 281 100 135 68 232 133 294 197 28 28 62 57 77 64 l27 14
12 -57 c24 -115 70 -235 99 -258 11 -9 137 -12 513 -13 l497 0 0 23 c0 12 -11
43 -24 68 -25 51 -27 55 -61 184 -58 224 -63 328 -70 1455 -4 617 -10 1004
-17 1035 -19 95 -30 140 -45 190 -19 63 -129 289 -148 305 -8 7 -15 17 -15 22
0 9 -31 49 -110 140 -35 41 -172 148 -189 148 -5 0 -14 7 -21 15 -7 9 -33 25
-56 35 -24 11 -45 24 -49 29 -7 13 -64 41 -81 41 -7 0 -29 9 -49 20 -20 11
-42 20 -50 20 -8 0 -30 9 -50 20 -20 11 -49 20 -65 20 -16 0 -32 5 -35 10 -3
6 -17 10 -30 10 -13 0 -27 5 -30 10 -3 6 -26 10 -50 10 -24 0 -47 5 -50 10 -3
6 -35 10 -70 10 -35 0 -67 5 -70 10 -4 6 -93 10 -235 10 -142 0 -231 -4 -235
-10 -3 -5 -39 -10 -80 -10 -41 0 -77 -4 -80 -10 -3 -5 -26 -10 -50 -10 -24 0
-47 -4 -50 -10 -3 -5 -21 -10 -40 -10 -19 0 -37 -4 -40 -10 -3 -5 -17 -10 -30
-10 -13 0 -27 -4 -30 -10 -3 -5 -17 -10 -30 -10 -13 0 -27 -4 -30 -10 -3 -5
-14 -10 -25 -10 -10 0 -44 -13 -75 -30 -31 -16 -63 -30 -69 -30 -17 0 -74 -29
-81 -41 -4 -5 -25 -18 -49 -29 -23 -10 -49 -26 -56 -35 -7 -8 -17 -15 -22 -15
-37 0 -292 -232 -346 -315 -41 -63 -72 -123 -72 -140 0 -9 -12 -28 -26 -42
-15 -15 -33 -41 -40 -60 -8 -18 -15 -33 -17 -33 -1 0 -2 187 -2 417 l0 416
-30 18 c-18 10 -52 18 -82 18 -28 1 -55 6 -58 11 -4 6 -60 10 -135 10 -75 0
-131 -4 -135 -10z m2513 -2118 c10 -7 12 -79 10 -345 -3 -332 -3 -336 -25
-359 -13 -14 -23 -28 -23 -33 0 -14 -112 -125 -126 -125 -6 0 -17 -7 -24 -15
-15 -19 -139 -78 -215 -103 -90 -30 -178 -42 -311 -42 -100 0 -127 3 -162 20
-22 11 -46 20 -51 20 -20 0 -107 53 -144 89 -21 20 -54 68 -73 106 -31 61 -36
82 -41 165 -3 54 0 121 7 155 6 33 14 75 17 93 3 17 9 32 14 32 5 0 9 9 9 20
0 11 5 20 10 20 6 0 10 6 10 12 0 17 151 168 167 168 7 0 13 5 13 10 0 6 9 10
20 10 11 0 20 3 20 8 0 9 49 32 70 32 9 0 20 4 26 8 8 8 96 29 209 50 62 12
575 15 593 4z"/>
<path d="M21080 2540 c-8 -5 -33 -10 -54 -10 -22 0 -53 -4 -70 -9 -17 -5 -51
-15 -76 -22 -84 -23 -145 -61 -223 -137 -107 -105 -124 -141 -134 -283 -4 -59
-1 -73 25 -125 34 -67 120 -154 172 -173 19 -7 56 -22 81 -33 48 -21 76 -21
214 0 101 15 222 62 300 116 49 34 135 118 161 158 24 37 24 41 24 283 l0 245
-202 0 c-114 0 -210 -5 -218 -10z"/>
<path d="M24405 4770 c-3 -5 -35 -10 -70 -10 -35 0 -67 -4 -70 -10 -3 -5 -26
-10 -50 -10 -24 0 -47 -4 -50 -10 -3 -5 -17 -10 -30 -10 -13 0 -27 -4 -30 -10
-3 -5 -19 -10 -35 -10 -16 0 -45 -9 -65 -20 -20 -11 -41 -20 -48 -20 -18 0
-234 -109 -248 -126 -6 -8 -17 -14 -24 -14 -6 0 -20 -9 -30 -20 -10 -11 -23
-20 -28 -20 -31 0 -273 -217 -323 -290 -13 -19 -40 -55 -59 -80 -19 -25 -40
-54 -45 -65 -6 -11 -19 -33 -30 -50 -26 -42 -116 -225 -125 -255 -4 -14 -11
-29 -15 -35 -8 -10 -18 -43 -66 -220 -53 -197 -68 -354 -69 -695 0 -299 12
-420 55 -590 5 -19 14 -57 20 -85 18 -74 51 -179 61 -189 5 -6 9 -16 9 -24 0
-40 149 -312 231 -422 41 -55 212 -230 254 -260 304 -219 557 -317 900 -351
132 -13 416 -7 505 11 30 6 80 15 110 22 157 31 408 137 555 232 84 55 337
306 393 391 53 81 132 233 132 256 0 8 4 19 10 25 5 5 22 57 36 114 20 77 28
131 28 205 l1 100 -465 0 -465 0 -3 -35 c-9 -123 -65 -244 -156 -338 -114
-117 -249 -172 -441 -179 -236 -9 -388 40 -523 171 -71 70 -118 145 -153 249
-7 20 -17 37 -21 37 -4 0 -8 15 -8 33 0 18 -4 37 -8 43 -9 9 -22 88 -44 259
-26 198 -14 663 21 886 17 106 102 331 136 359 8 7 15 18 15 24 0 6 28 39 63
72 67 65 174 124 262 144 28 7 66 16 86 21 20 5 78 9 128 9 173 0 361 -72 462
-177 88 -92 189 -323 189 -433 l0 -50 460 0 460 0 0 113 c0 136 -33 308 -79
410 -10 23 -22 53 -26 66 -4 14 -16 39 -26 55 -10 17 -30 56 -46 86 -46 92
-94 156 -203 273 -61 65 -199 177 -218 177 -5 0 -17 9 -27 20 -10 11 -24 20
-30 20 -7 0 -18 7 -25 15 -13 16 -149 85 -167 85 -7 0 -28 9 -48 20 -20 11
-44 20 -55 20 -10 0 -22 5 -25 10 -3 6 -17 10 -30 10 -13 0 -27 5 -30 10 -3 6
-21 10 -40 10 -19 0 -37 5 -40 10 -3 6 -21 10 -40 10 -19 0 -37 5 -40 10 -3 6
-35 10 -70 10 -35 0 -67 5 -70 10 -4 6 -90 10 -225 10 -135 0 -221 -4 -225
-10z"/>
</g>
</svg>
